<?xml version="1.0" standalone="no"?>
<!DOCTYPE svg PUBLIC "-//W3C//DTD SVG 20010904//EN"
 "http://www.w3.org/TR/2001/REC-SVG-20010904/DTD/svg10.dtd">
<svg version="1.0" xmlns="http://www.w3.org/2000/svg"
 width="449.000000pt" height="116.000000pt" viewBox="0 0 449.000000 116.000000"
 preserveAspectRatio="xMidYMid meet">

<g transform="translate(0.000000,116.000000) scale(0.100000,-0.100000)"
fill="#000000" stroke="none">
<path d="M471 929 c10 -33 19 -88 19 -122 l0 -61 -27 26 c-45 40 -85 65 -129
78 -50 15 -107 -1 -209 -58 l-65 -36 51 -29 c90 -52 199 -165 199 -207 0 -5
-9 -10 -21 -10 -29 0 -202 -82 -192 -91 4 -4 31 -12 59 -17 61 -13 164 -51
164 -60 0 -4 -21 -18 -47 -32 l-47 -25 49 -7 c28 -3 68 -7 91 -7 42 -1 48 -5
103 -72 17 -20 50 -46 75 -59 40 -22 48 -23 85 -12 25 8 59 31 89 62 49 49 50
50 113 50 l64 1 -34 18 -33 18 81 23 c44 13 81 27 81 31 0 4 -18 10 -40 14
-22 4 -42 10 -45 14 -2 5 43 34 101 66 118 64 120 75 14 75 l-64 0 49 45 50
45 -75 -5 c-41 -3 -89 -8 -106 -11 -27 -4 -33 -1 -44 26 -15 35 -61 77 -96 86
-17 4 -25 15 -29 40 -3 19 -8 51 -11 71 -7 44 -35 102 -60 124 -19 16 -103 50
-155 63 l-27 6 19 -61z m206 -509 c-6 -92 -1 -93 48 -11 30 50 51 68 41 34
-17 -59 -19 -76 -6 -68 10 6 12 4 7 -8 -7 -20 4 -22 21 -5 9 9 13 8 17 -5 7
-17 -8 -52 -36 -82 -10 -11 -35 -39 -55 -63 -44 -50 -81 -72 -124 -72 -24 0
-42 12 -83 53 -116 118 -128 137 -111 182 6 14 8 14 25 -1 13 -12 19 -13 19
-4 0 7 7 10 15 6 11 -4 15 2 15 22 0 29 24 72 41 72 5 0 9 -27 9 -60 0 -33 3
-60 8 -60 4 0 18 16 31 35 24 35 105 115 117 115 4 0 4 -36 1 -80z"/>
<path d="M1593 703 c-223 -462 -233 -484 -219 -489 8 -3 29 -4 48 -2 29 3 37
10 63 61 l30 57 185 -2 185 -3 29 -58 c29 -58 29 -58 70 -55 35 3 41 6 39 24
-1 11 -50 119 -109 240 -58 120 -128 265 -155 322 -26 56 -53 102 -59 102 -6
0 -54 -89 -107 -197z m247 -280 c0 -1 -63 -3 -140 -3 -77 0 -140 2 -140 3 0 9
123 263 133 275 9 11 27 -19 79 -129 37 -78 68 -144 68 -146z"/>
<path d="M2668 878 c-26 -22 -29 -47 -8 -68 11 -11 26 -20 34 -20 20 0 46 28
46 50 0 21 -25 50 -44 50 -7 0 -19 -6 -28 -12z"/>
<path d="M2877 884 c-4 -4 -7 -152 -7 -329 0 -352 0 -350 57 -343 l28 3 0 335
0 335 -35 3 c-20 2 -39 0 -43 -4z"/>
<path d="M3952 553 l3 -338 40 0 40 0 3 85 c1 47 5 91 8 99 3 10 37 -17 107
-87 97 -97 104 -102 145 -102 27 0 42 4 42 13 0 7 -43 55 -95 107 -52 52 -95
98 -95 103 0 4 35 44 78 88 42 45 77 86 77 93 0 6 -18 12 -40 14 -38 3 -44 -1
-125 -83 -46 -47 -88 -85 -92 -85 -4 0 -9 96 -10 213 l-3 212 -43 3 -42 3 2
-338z"/>
<path d="M2315 633 c-11 -3 -34 -12 -52 -20 -28 -13 -34 -13 -57 2 -13 9 -35
15 -48 13 l-23 -3 0 -205 0 -205 40 0 40 0 5 145 5 144 34 23 c48 33 123 32
156 -2 24 -23 25 -29 25 -158 0 -149 4 -161 61 -155 l32 3 -2 149 c-3 182 -14
216 -81 251 -30 15 -106 26 -135 18z"/>
<path d="M2655 618 c-3 -8 -4 -101 -3 -208 l3 -195 40 0 40 0 0 205 0 205 -38
3 c-24 2 -39 -1 -42 -10z"/>
<path d="M3142 611 c-29 -10 -55 -21 -59 -24 -5 -6 15 -67 23 -67 2 0 33 10
68 21 75 25 127 20 150 -13 17 -24 6 -48 -22 -48 -31 0 -177 -50 -198 -68 -62
-52 -59 -147 6 -185 38 -23 147 -23 196 0 34 17 36 17 45 0 7 -11 22 -17 44
-17 l34 0 -6 158 c-6 179 -17 214 -73 244 -45 23 -138 23 -208 -1z m187 -210
c17 -11 9 -80 -11 -93 -45 -28 -129 -35 -152 -12 -35 34 -7 66 81 94 71 22 65
21 82 11z"/>
<path d="M3595 614 c-16 -8 -38 -25 -47 -37 -22 -28 -23 -95 -2 -126 17 -24
106 -71 135 -71 18 0 69 -37 69 -50 0 -20 -34 -40 -66 -40 -19 0 -51 7 -71 15
-50 21 -60 19 -78 -14 -14 -29 -14 -30 14 -50 49 -35 112 -47 173 -32 67 17
94 33 114 72 36 71 -4 128 -125 174 -88 33 -104 50 -72 76 27 22 52 23 104 4
35 -12 40 -12 58 6 29 29 23 48 -23 69 -52 24 -141 26 -183 4z"/>
</g>
</svg>
